# xmcd CD database file
#
# Track frame offsets:
#	150
#	21283
#	47022
#	67263
#	87883
#	109121
#	127414
#	153254
#	175190
#	201434
#	227896
#	248620
#	265826
#	284074
#	304356
#
# Disc length: 4339 seconds
#
# Revision: 1
# Processed by: cddbd v1.4PL0 Copyright (c) Steve Scherf et al.
# Submitted via: CDex 1.50beta10
#
DISCID=e210f10f
DTITLE=Various Artist - The Best of The Best
DYEAR=1900
DGENRE=Country
TTITLE0=Walk right In
TTITLE1=Arms of Mary
TTITLE2=The Night they drove old dixie down
TTITLE3=Galverston
TTITLE4=Out of the Blue
TTITLE5=The Devils right Hand
TTITLE6=This Flower
TTITLE7=Our Sunshine
TTITLE8=Way out West
TTITLE9=Two Sparrows in a Hurricane
TTITLE10=Watcha Gunna Do with a Cowboy
TTITLE11=Faith in you
TTITLE12=We Danced Anyway
TTITLE13=Collingulie Station
TTITLE14=The Lights on the Hill
EXTD=
EXTT0=
EXTT1=
EXTT2=
EXTT3=
EXTT4=
EXTT5=
EXTT6=
EXTT7=
EXTT8=
EXTT9=
EXTT10=
EXTT11=
EXTT12=
EXTT13=
EXTT14=
PLAYORDER=
